<svg width="401" height="710" viewBox="0 0 401 710" fill="none" xmlns="http://www.w3.org/2000/svg">
<g opacity="0.03">
<path d="M-179.495 15.4402C-74.5483 -49.5484 103.449 155.871 179.329 266.704C206.338 330.937 188.974 359.276 34.6417 393.281C-119.691 427.287 -312.607 393.281 -329.969 300.71C-347.331 208.139 -310.677 96.676 -179.495 15.4402Z" stroke="#257AD7" stroke-width="6"/>
<path d="M345.236 22.9972C232.573 -46.5256 219.841 161.539 227.558 274.261C221.77 346.051 345.236 366.832 449.411 338.494C553.585 310.156 486.065 109.901 345.236 22.9972Z" stroke="#257AD7" stroke-width="6"/>
<path d="M322.086 493.409C411.599 475.273 320.8 403.987 264.212 370.611C239.133 359.276 220.613 343.406 192.833 393.281C158.108 455.625 210.195 516.08 322.086 493.409Z" stroke="#257AD7" stroke-width="6"/>
<path d="M126.957 425.634C53.2709 473.408 -15.8867 614.149 -42.5246 682.33L-2.0123 705C0.880859 632.752 83.0939 499.536 131.517 430.742C133.909 427.344 130.443 423.374 126.957 425.634Z" stroke="#257AD7" stroke-width="6"/>
</g>
</svg>
