<svg width="34" height="34" viewBox="0 0 34 34" fill="none" xmlns="http://www.w3.org/2000/svg">
<path d="M13.0585 30.6099H21.2726C28.1177 30.6099 30.8557 27.8718 30.8557 21.0267V12.8126C30.8557 5.96753 28.1177 3.22949 21.2726 3.22949H13.0585C6.21338 3.22949 3.47534 5.96753 3.47534 12.8126V21.0267C3.47534 27.8718 6.21338 30.6099 13.0585 30.6099Z" stroke="#C3C5CD" stroke-width="2.05353" stroke-linecap="round" stroke-linejoin="round"/>
<path d="M13.0585 14.1816C14.5706 14.1816 15.7965 12.9558 15.7965 11.4436C15.7965 9.93143 14.5706 8.70557 13.0585 8.70557C11.5463 8.70557 10.3204 9.93143 10.3204 11.4436C10.3204 12.9558 11.5463 14.1816 13.0585 14.1816Z" stroke="#C3C5CD" stroke-width="2.05353" stroke-linecap="round" stroke-linejoin="round"/>
<path d="M4.39258 26.4344L11.1418 21.9029C12.2234 21.1773 13.784 21.2595 14.756 22.0946L15.2078 22.4916C16.2757 23.4088 18.0006 23.4088 19.0685 22.4916L24.7636 17.6042C25.8314 16.6869 27.5564 16.6869 28.6242 17.6042L30.8557 19.5208" stroke="#C3C5CD" stroke-width="2.05353" stroke-linecap="round" stroke-linejoin="round"/>
</svg>
