<svg width="135" height="108" viewBox="0 0 135 108" fill="none" xmlns="http://www.w3.org/2000/svg">
<g clip-path="url(#clip0_33_475)">
<path d="M57.9867 39.1922C68.4599 39.1922 76.95 30.702 76.95 20.2289C76.95 9.75578 68.4599 1.26562 57.9867 1.26562C47.5136 1.26562 39.0234 9.75578 39.0234 20.2289C39.0234 30.702 47.5136 39.1922 57.9867 39.1922Z" stroke="url(#paint0_linear_33_475)" stroke-width="2.53125" stroke-miterlimit="10" stroke-linecap="round" stroke-linejoin="round"/>
<path d="M57.2694 68.3437C61.6497 68.3437 65.2006 64.7928 65.2006 60.4124C65.2006 56.0321 61.6497 52.4812 57.2694 52.4812C52.8891 52.4812 49.3381 56.0321 49.3381 60.4124C49.3381 64.7928 52.8891 68.3437 57.2694 68.3437Z" stroke="url(#paint1_linear_33_475)" stroke-width="2.53125" stroke-miterlimit="10" stroke-linecap="round" stroke-linejoin="round"/>
<path d="M67.5212 68.8711C68.4916 66.5719 70.7697 64.9688 73.4064 64.9688C76.9501 64.9688 79.7978 67.8375 79.7978 71.3602C79.7978 73.4484 78.8064 75.2836 77.2665 76.4437" stroke="url(#paint2_linear_33_475)" stroke-width="2.53125" stroke-miterlimit="10" stroke-linecap="round" stroke-linejoin="round"/>
<path d="M36.914 76.6335C34.7203 75.4312 33.3492 73.0054 33.6234 70.3687C33.982 66.846 37.125 64.2937 40.6265 64.6523C42.6937 64.8632 44.4234 66.0233 45.4359 67.6687" stroke="url(#paint3_linear_33_475)" stroke-width="2.53125" stroke-miterlimit="10" stroke-linecap="round" stroke-linejoin="round"/>
<path d="M78.9539 82.0547C81.5906 82.7508 84.4804 83.8477 85.5351 86.3578C86.0414 87.518 86.0414 88.8258 86.0414 90.0914C86.0625 93.2344 86.0625 96.3773 86.0835 99.5203C86.0835 100.364 86.0835 101.208 85.7671 101.988C85.4507 102.769 84.1218 103.444 83.2781 103.465C82.1812 103.507 80.6625 102.136 80.6835 101.039" stroke="url(#paint4_linear_33_475)" stroke-width="2.53125" stroke-miterlimit="10" stroke-linecap="round" stroke-linejoin="round"/>
<path d="M80.7046 90.6188V106.734" stroke="url(#paint5_linear_33_475)" stroke-width="2.53125" stroke-miterlimit="10" stroke-linecap="round" stroke-linejoin="round"/>
<path d="M57.0164 73.9124C59.3578 73.9124 63.4921 73.9124 65.8335 73.9124C66.382 73.9124 66.9515 73.9124 67.5 73.9967C68.407 74.1444 69.2507 74.503 70.0101 75.0303C71.5921 76.1061 72.7312 77.8147 73.132 79.671C73.3007 80.5147 73.3429 81.3584 73.364 82.2233C73.4695 85.4506 73.596 88.6569 73.7015 91.8842C73.7437 92.9178 73.7648 93.9514 73.6593 94.985C73.5539 96.0397 73.2585 97.0944 72.6257 97.917C71.9718 98.7397 70.9171 98.7186 69.8625 98.5288C66.0023 97.8749 66.5296 85.092 66.5296 82.5819L66.8671 106.734" stroke="url(#paint6_linear_33_475)" stroke-width="2.53125" stroke-miterlimit="10" stroke-linecap="round" stroke-linejoin="round"/>
<path d="M34.5726 82.0547C31.9358 82.7508 29.046 83.8477 27.9913 86.3578C27.4851 87.518 27.4851 88.8258 27.4851 90.0914C27.464 93.2344 27.464 96.3773 27.4429 99.5203C27.4429 100.364 27.4429 101.208 27.7593 101.988C28.0757 102.769 29.278 103.423 30.1218 103.444C31.2187 103.486 32.864 102.157 32.8429 101.039" stroke="url(#paint7_linear_33_475)" stroke-width="2.53125" stroke-miterlimit="10" stroke-linecap="round" stroke-linejoin="round"/>
<path d="M32.822 90.6188V106.734" stroke="url(#paint8_linear_33_475)" stroke-width="2.53125" stroke-miterlimit="10" stroke-linecap="round" stroke-linejoin="round"/>
<path d="M57.0163 73.9124C54.6748 73.9124 50.0553 73.9124 47.6928 73.9124C47.1444 73.9124 46.5748 73.9124 46.0264 73.9967C45.1194 74.1444 44.2756 74.503 43.5163 75.0303C41.9342 76.1061 40.7952 77.8147 40.3944 79.671C40.2256 80.5147 40.1834 81.3584 40.1623 82.2233C40.0569 85.4506 39.9303 88.6569 39.8248 91.8842C39.7827 92.9178 39.7616 93.9514 39.867 94.985C39.9725 96.0397 40.2678 97.0944 40.9006 97.917C41.5545 98.7397 42.6092 98.7186 43.6639 98.5288C47.5241 97.8749 46.9967 85.092 46.9967 82.5819L46.6592 106.734" stroke="url(#paint9_linear_33_475)" stroke-width="2.53125" stroke-miterlimit="10" stroke-linecap="round" stroke-linejoin="round"/>
<path d="M85.6196 76.8657C85.6196 76.8657 114.159 76.8657 111.565 53.6204C109.92 38.8758 87.8344 39.2133 87.8344 39.2133V28.0969L68.8079 46.6805L87.8977 66.2977V55.2446C87.8977 55.2446 101.482 57.1219 100.681 66.4032C99.9 75.579 85.6196 76.8657 85.6196 76.8657Z" stroke="url(#paint10_linear_33_475)" stroke-width="2.53125" stroke-miterlimit="10" stroke-linecap="round" stroke-linejoin="round"/>
<path d="M105.004 35.3954C105.004 35.3954 112.957 39.0868 113.779 42.6305" stroke="url(#paint11_linear_33_475)" stroke-width="2.53125" stroke-miterlimit="10" stroke-linecap="round" stroke-linejoin="round"/>
<path d="M94.9855 33.9824C95.7079 33.9824 96.2936 33.3968 96.2936 32.6744C96.2936 31.952 95.7079 31.3663 94.9855 31.3663C94.2631 31.3663 93.6775 31.952 93.6775 32.6744C93.6775 33.3968 94.2631 33.9824 94.9855 33.9824Z" fill="url(#paint12_linear_33_475)"/>
<path d="M102.68 34.6579C102.896 33.9441 102.158 33.0894 101.032 32.7488C99.9051 32.4082 98.817 32.7108 98.6012 33.4246C98.3854 34.1384 99.1236 34.9931 100.25 35.3337C101.377 35.6743 102.465 35.3717 102.68 34.6579Z" fill="url(#paint13_linear_33_475)"/>
<path d="M29.4258 76.8657C29.4258 76.8657 0.885946 76.8657 3.48048 53.6204C5.12579 38.8758 27.2109 39.2133 27.2109 39.2133V28.0969L46.2375 46.6805L27.1477 66.2977V55.2446C27.1477 55.2446 13.5633 57.1219 14.3649 66.4032C15.1453 75.579 29.4258 76.8657 29.4258 76.8657Z" stroke="url(#paint14_linear_33_475)" stroke-width="2.53125" stroke-miterlimit="10" stroke-linecap="round" stroke-linejoin="round"/>
<path d="M10.0406 35.3954C10.0406 35.3954 2.08828 39.0868 1.26562 42.6305" stroke="url(#paint15_linear_33_475)" stroke-width="2.53125" stroke-miterlimit="10" stroke-linecap="round" stroke-linejoin="round"/>
<path d="M20.0602 33.9824C20.7826 33.9824 21.3683 33.3968 21.3683 32.6744C21.3683 31.952 20.7826 31.3663 20.0602 31.3663C19.3378 31.3663 18.7522 31.952 18.7522 32.6744C18.7522 33.3968 19.3378 33.9824 20.0602 33.9824Z" fill="url(#paint16_linear_33_475)"/>
<path d="M14.7989 35.3371C15.9254 34.9965 16.6636 34.1418 16.4478 33.428C16.232 32.7142 15.1439 32.4117 14.0174 32.7522C12.891 33.0928 12.1527 33.9475 12.3685 34.6613C12.5844 35.3751 13.6725 35.6777 14.7989 35.3371Z" fill="url(#paint17_linear_33_475)"/>
<path d="M57.2695 8.20544V32.6742" stroke="url(#paint18_linear_33_475)" stroke-width="2.53125" stroke-miterlimit="10" stroke-linecap="round" stroke-linejoin="round"/>
<path d="M51.7639 24.4054H51.785C52.5022 24.2578 53.2194 24.7007 53.4303 25.4179C53.6624 26.2406 54.0421 26.8945 54.5483 27.3796C55.2866 28.0757 56.278 28.4343 57.5225 28.4343C58.746 28.4343 59.7163 28.139 60.3913 27.5273C61.0663 26.9156 61.4038 26.1351 61.4038 25.207C61.4038 24.4054 61.1085 23.7726 60.5389 23.3085C60.1381 22.9921 59.1678 22.6125 57.6491 22.1484C55.4342 21.4734 53.9577 20.8828 53.2194 20.4187C52.4811 19.9335 51.8905 19.3007 51.4897 18.4992C51.0678 17.6976 50.878 16.7906 50.878 15.7781C50.878 14.0273 51.4475 12.614 52.5655 11.5171C53.6835 10.4203 55.2444 9.87183 57.2061 9.87183C58.4506 9.87183 59.5475 10.1039 60.4967 10.5468C61.446 10.9898 62.1631 11.6015 62.6694 12.3609C62.9647 12.825 63.2178 13.3945 63.4077 14.0906C63.6397 14.8921 63.0913 15.7359 62.2686 15.8625C61.5725 15.9679 60.9186 15.5671 60.6866 14.9132C60.1803 13.4578 59.0413 12.7195 57.2905 12.7195C56.046 12.7195 55.1389 12.9726 54.5272 13.4578C53.9155 13.9429 53.6202 14.5757 53.6202 15.3562C53.6202 16.1156 53.9155 16.7062 54.485 17.1492C54.8225 17.4023 55.8561 17.8242 57.5858 18.3726C59.9483 19.1109 61.4671 19.7226 62.1631 20.1656C62.8592 20.6085 63.3866 21.2203 63.7874 21.9796C64.167 22.739 64.3569 23.6671 64.3569 24.7218C64.3569 26.6835 63.7452 28.2656 62.5006 29.4679C61.2561 30.6703 59.5686 31.282 57.4171 31.282C53.8733 31.282 51.6374 29.5734 50.7092 26.1773C50.435 25.3546 50.9624 24.5531 51.7639 24.4054Z" fill="url(#paint19_linear_33_475)"/>
</g>
<defs>
<linearGradient id="paint0_linear_33_475" x1="39.0234" y1="20.2289" x2="76.95" y2="20.2289" gradientUnits="userSpaceOnUse">
<stop stop-color="#9243EE"/>
<stop offset="1" stop-color="#7836F6"/>
</linearGradient>
<linearGradient id="paint1_linear_33_475" x1="49.3381" y1="60.4124" x2="65.2006" y2="60.4124" gradientUnits="userSpaceOnUse">
<stop stop-color="#9243EE"/>
<stop offset="1" stop-color="#7836F6"/>
</linearGradient>
<linearGradient id="paint2_linear_33_475" x1="67.5212" y1="70.7062" x2="79.7978" y2="70.7062" gradientUnits="userSpaceOnUse">
<stop stop-color="#9243EE"/>
<stop offset="1" stop-color="#7836F6"/>
</linearGradient>
<linearGradient id="paint3_linear_33_475" x1="33.5886" y1="70.6261" x2="45.4359" y2="70.6261" gradientUnits="userSpaceOnUse">
<stop stop-color="#9243EE"/>
<stop offset="1" stop-color="#7836F6"/>
</linearGradient>
<linearGradient id="paint4_linear_33_475" x1="78.9539" y1="92.7602" x2="86.0835" y2="92.7602" gradientUnits="userSpaceOnUse">
<stop stop-color="#9243EE"/>
<stop offset="1" stop-color="#7836F6"/>
</linearGradient>
<linearGradient id="paint5_linear_33_475" x1="80.7046" y1="98.6766" x2="81.7046" y2="98.6766" gradientUnits="userSpaceOnUse">
<stop stop-color="#9243EE"/>
<stop offset="1" stop-color="#7836F6"/>
</linearGradient>
<linearGradient id="paint6_linear_33_475" x1="57.0164" y1="90.3233" x2="73.7361" y2="90.3233" gradientUnits="userSpaceOnUse">
<stop stop-color="#9243EE"/>
<stop offset="1" stop-color="#7836F6"/>
</linearGradient>
<linearGradient id="paint7_linear_33_475" x1="27.4429" y1="92.7497" x2="34.5726" y2="92.7497" gradientUnits="userSpaceOnUse">
<stop stop-color="#9243EE"/>
<stop offset="1" stop-color="#7836F6"/>
</linearGradient>
<linearGradient id="paint8_linear_33_475" x1="32.822" y1="98.6766" x2="33.822" y2="98.6766" gradientUnits="userSpaceOnUse">
<stop stop-color="#9243EE"/>
<stop offset="1" stop-color="#7836F6"/>
</linearGradient>
<linearGradient id="paint9_linear_33_475" x1="39.7903" y1="90.3233" x2="57.0163" y2="90.3233" gradientUnits="userSpaceOnUse">
<stop stop-color="#9243EE"/>
<stop offset="1" stop-color="#7836F6"/>
</linearGradient>
<linearGradient id="paint10_linear_33_475" x1="68.8079" y1="52.4813" x2="111.732" y2="52.4813" gradientUnits="userSpaceOnUse">
<stop stop-color="#9243EE"/>
<stop offset="1" stop-color="#7836F6"/>
</linearGradient>
<linearGradient id="paint11_linear_33_475" x1="105.004" y1="39.013" x2="113.779" y2="39.013" gradientUnits="userSpaceOnUse">
<stop stop-color="#9243EE"/>
<stop offset="1" stop-color="#7836F6"/>
</linearGradient>
<linearGradient id="paint12_linear_33_475" x1="93.6775" y1="32.6744" x2="96.2936" y2="32.6744" gradientUnits="userSpaceOnUse">
<stop stop-color="#9243EE"/>
<stop offset="1" stop-color="#7836F6"/>
</linearGradient>
<linearGradient id="paint13_linear_33_475" x1="100.25" y1="35.3337" x2="101.032" y2="32.7488" gradientUnits="userSpaceOnUse">
<stop stop-color="#9243EE"/>
<stop offset="1" stop-color="#7836F6"/>
</linearGradient>
<linearGradient id="paint14_linear_33_475" x1="3.31372" y1="52.4813" x2="46.2375" y2="52.4813" gradientUnits="userSpaceOnUse">
<stop stop-color="#9243EE"/>
<stop offset="1" stop-color="#7836F6"/>
</linearGradient>
<linearGradient id="paint15_linear_33_475" x1="1.26563" y1="39.013" x2="10.0406" y2="39.013" gradientUnits="userSpaceOnUse">
<stop stop-color="#9243EE"/>
<stop offset="1" stop-color="#7836F6"/>
</linearGradient>
<linearGradient id="paint16_linear_33_475" x1="18.7522" y1="32.6744" x2="21.3683" y2="32.6744" gradientUnits="userSpaceOnUse">
<stop stop-color="#9243EE"/>
<stop offset="1" stop-color="#7836F6"/>
</linearGradient>
<linearGradient id="paint17_linear_33_475" x1="12.3685" y1="34.6613" x2="16.4478" y2="33.428" gradientUnits="userSpaceOnUse">
<stop stop-color="#9243EE"/>
<stop offset="1" stop-color="#7836F6"/>
</linearGradient>
<linearGradient id="paint18_linear_33_475" x1="57.2695" y1="20.4398" x2="58.2695" y2="20.4398" gradientUnits="userSpaceOnUse">
<stop stop-color="#9243EE"/>
<stop offset="1" stop-color="#7836F6"/>
</linearGradient>
<linearGradient id="paint19_linear_33_475" x1="50.636" y1="20.5769" x2="64.3569" y2="20.5769" gradientUnits="userSpaceOnUse">
<stop stop-color="#9243EE"/>
<stop offset="1" stop-color="#7836F6"/>
</linearGradient>
<clipPath id="clip0_33_475">
<rect width="115.045" height="108" fill="white"/>
</clipPath>
</defs>
</svg>
