<svg width="135" height="109" viewBox="0 0 135 109" fill="none" xmlns="http://www.w3.org/2000/svg">
<g clip-path="url(#clip0_32_458)">
<path d="M34.0312 24.0606C32.507 24.1356 30.9329 24.2105 29.4587 23.7858C28.0095 23.386 26.6603 22.4615 25.9856 21.1123C25.311 19.763 25.386 18.014 26.3604 16.8896C27.3599 15.7652 29.2588 15.4904 30.4082 16.4648C29.6836 14.1161 29.8085 11.3177 31.4326 9.46872C33.0567 7.61975 36.4798 7.41986 37.8291 9.46872C37.5792 6.42041 39.728 3.47205 42.5514 2.2977C45.3749 1.09837 48.673 1.47316 51.4715 2.74745C53.4454 3.64695 55.2694 5.04618 56.3438 6.94512C57.4182 8.84407 57.6431 11.2927 56.5936 13.2166C58.3177 11.9673 60.7164 11.7175 62.7152 12.4671C64.7141 13.2166 66.3132 14.9157 67.0628 16.9396C67.7874 18.8885 67.4876 21.512 65.6386 22.4115C61.2161 24.5603 55.8441 23.6358 50.9968 23.6608C45.3499 23.6608 39.678 23.8108 34.0312 24.0606Z" stroke="url(#paint0_linear_32_458)" stroke-width="2.99833" stroke-miterlimit="10" stroke-linecap="round" stroke-linejoin="round"/>
<path d="M48.0981 77.9557C44.0754 70.11 31.9821 69.5104 24.8111 72.6586C21.7628 74.0079 19.0893 76.4565 17.6401 79.4798C15.941 83.0279 15.2914 89.3244 15.3413 90.7486C10.6689 89.6742 8.09537 90.8735 7.42074 91.1733C-3.62312 95.8208 3.62285 106.99 6.97099 106.99C15.2164 106.99 63.3147 106.54 69.5362 106.54C73.484 106.54 73.484 100.193 72.2597 98.1944C70.7356 95.6958 66.5379 94.6714 63.7145 95.9707C64.2642 93.7969 64.4641 91.4232 63.6395 89.3244C62.84 87.2255 60.7911 85.4765 58.5423 85.5765" stroke="url(#paint1_linear_32_458)" stroke-width="2.99833" stroke-miterlimit="10" stroke-linecap="round" stroke-linejoin="round"/>
<path d="M48.598 86.2262L61.6907 72.9835" stroke="url(#paint2_linear_32_458)" stroke-width="2.99833" stroke-miterlimit="10" stroke-linecap="round" stroke-linejoin="round"/>
<path d="M73.2093 76.0818L67.7874 82.0285" stroke="url(#paint3_linear_32_458)" stroke-width="2.99833" stroke-miterlimit="10" stroke-linecap="round" stroke-linejoin="round"/>
<path d="M81.2548 81.329L72.2848 90.6988" stroke="url(#paint4_linear_32_458)" stroke-width="2.99833" stroke-miterlimit="10" stroke-linecap="round" stroke-linejoin="round"/>
<path d="M58.2676 63.0641C58.2676 63.0641 50.6218 70.8847 50.6218 70.435" stroke="url(#paint5_linear_32_458)" stroke-width="2.99833" stroke-miterlimit="10" stroke-linecap="round" stroke-linejoin="round"/>
<path d="M53.4453 53.5193L41.4769 66.3622" stroke="url(#paint6_linear_32_458)" stroke-width="2.99833" stroke-miterlimit="10" stroke-linecap="round" stroke-linejoin="round"/>
<path d="M96.5464 59.2161C98.2954 74.3577 89.6253 78.1805 89.6253 78.1805C87.1516 75.7069 84.3782 72.9584 81.9045 70.4848" stroke="url(#paint7_linear_32_458)" stroke-width="2.99833" stroke-miterlimit="10" stroke-linecap="round" stroke-linejoin="round"/>
<path d="M74.4836 43.1252C80.2055 35.7793 86.0522 28.3335 93.598 22.8865C102.518 16.4651 113.362 13.2169 124.181 11.3429C123.082 20.4378 120.508 29.3829 116.56 37.6533C114.711 41.5511 110.414 48.4223 92.2488 62.5894" stroke="url(#paint8_linear_32_458)" stroke-width="2.99833" stroke-miterlimit="10" stroke-linecap="round" stroke-linejoin="round"/>
<path d="M84.5031 63.6637C83.9284 65.7376 83.3537 67.8114 82.3792 69.7103C81.4048 71.6093 78.3565 74.0329 78.3565 74.0329C73.9339 69.3855 63.04 58.0918 62.4403 56.8175C64.839 53.6942 68.0622 51.4455 71.96 50.8458" stroke="url(#paint9_linear_32_458)" stroke-width="2.99833" stroke-miterlimit="10" stroke-linecap="round" stroke-linejoin="round"/>
<path d="M77.6318 38.9274C69.5613 37.5532 62.1904 39.0024 57.368 45.6237L65.0388 54.094" stroke="url(#paint10_linear_32_458)" stroke-width="2.99833" stroke-miterlimit="10" stroke-linecap="round" stroke-linejoin="round"/>
<path d="M133.401 88.2251C133.801 86.5011 133.201 84.5272 131.727 83.5527C130.253 82.5783 127.979 82.9031 127.079 84.4023C128.129 80.8792 126.48 76.7565 123.282 74.9325C121.258 73.7832 118.834 73.5583 116.51 73.7082C114.411 73.8331 112.138 74.3828 110.813 76.0069C109.664 77.4061 109.414 79.3301 109.639 81.1291C108.64 79.9547 106.766 79.6299 105.416 80.4045C104.067 81.179 103.393 82.9531 103.917 84.4272C102.493 83.8776 100.794 84.4023 99.7696 85.5266C98.7451 86.651 98.3703 88.2751 98.5453 89.7743C98.6202 90.4239 98.8201 91.0985 99.2199 91.6232C100.194 92.9475 102.068 93.0974 103.717 93.0974C109.564 93.1724 126.83 93.2473 129.603 93.1224C131.627 92.9975 132.926 90.249 133.401 88.2251Z" stroke="url(#paint11_linear_32_458)" stroke-width="2.99833" stroke-miterlimit="10" stroke-linecap="round" stroke-linejoin="round"/>
<path d="M104.642 36.3038C107.084 36.3038 109.064 34.3238 109.064 31.8813C109.064 29.4388 107.084 27.4587 104.642 27.4587C102.199 27.4587 100.219 29.4388 100.219 31.8813C100.219 34.3238 102.199 36.3038 104.642 36.3038Z" stroke="url(#paint12_linear_32_458)" stroke-width="2.99833" stroke-miterlimit="10" stroke-linecap="round" stroke-linejoin="round"/>
<path d="M94.9223 45.1492C97.3648 45.1492 99.3448 43.1691 99.3448 40.7266C99.3448 38.2841 97.3648 36.3041 94.9223 36.3041C92.4798 36.3041 90.4998 38.2841 90.4998 40.7266C90.4998 43.1691 92.4798 45.1492 94.9223 45.1492Z" stroke="url(#paint13_linear_32_458)" stroke-width="2.99833" stroke-miterlimit="10" stroke-linecap="round" stroke-linejoin="round"/>
<path d="M85.7023 55.1434C88.1448 55.1434 90.1249 53.1634 90.1249 50.7209C90.1249 48.2784 88.1448 46.2983 85.7023 46.2983C83.2598 46.2983 81.2798 48.2784 81.2798 50.7209C81.2798 53.1634 83.2598 55.1434 85.7023 55.1434Z" stroke="url(#paint14_linear_32_458)" stroke-width="2.99833" stroke-miterlimit="10" stroke-linecap="round" stroke-linejoin="round"/>
<path d="M104.317 16.9147C109.739 21.662 114.386 26.2595 119.159 31.6315" stroke="url(#paint15_linear_32_458)" stroke-width="2.99833" stroke-miterlimit="10" stroke-linecap="round" stroke-linejoin="round"/>
</g>
<defs>
<linearGradient id="paint0_linear_32_458" x1="25.5431" y1="12.8441" x2="67.4267" y2="12.8441" gradientUnits="userSpaceOnUse">
<stop stop-color="#9243EE"/>
<stop offset="1" stop-color="#7836F6"/>
</linearGradient>
<linearGradient id="paint1_linear_32_458" x1="1.5271" y1="88.9342" x2="72.9789" y2="88.9342" gradientUnits="userSpaceOnUse">
<stop stop-color="#9243EE"/>
<stop offset="1" stop-color="#7836F6"/>
</linearGradient>
<linearGradient id="paint2_linear_32_458" x1="48.598" y1="79.6048" x2="61.6907" y2="79.6048" gradientUnits="userSpaceOnUse">
<stop stop-color="#9243EE"/>
<stop offset="1" stop-color="#7836F6"/>
</linearGradient>
<linearGradient id="paint3_linear_32_458" x1="67.7874" y1="79.0551" x2="73.2093" y2="79.0551" gradientUnits="userSpaceOnUse">
<stop stop-color="#9243EE"/>
<stop offset="1" stop-color="#7836F6"/>
</linearGradient>
<linearGradient id="paint4_linear_32_458" x1="72.2848" y1="86.0139" x2="81.2548" y2="86.0139" gradientUnits="userSpaceOnUse">
<stop stop-color="#9243EE"/>
<stop offset="1" stop-color="#7836F6"/>
</linearGradient>
<linearGradient id="paint5_linear_32_458" x1="50.6218" y1="66.7589" x2="58.2676" y2="66.7589" gradientUnits="userSpaceOnUse">
<stop stop-color="#9243EE"/>
<stop offset="1" stop-color="#7836F6"/>
</linearGradient>
<linearGradient id="paint6_linear_32_458" x1="41.4769" y1="59.9407" x2="53.4453" y2="59.9407" gradientUnits="userSpaceOnUse">
<stop stop-color="#9243EE"/>
<stop offset="1" stop-color="#7836F6"/>
</linearGradient>
<linearGradient id="paint7_linear_32_458" x1="81.9045" y1="68.6983" x2="96.7794" y2="68.6983" gradientUnits="userSpaceOnUse">
<stop stop-color="#9243EE"/>
<stop offset="1" stop-color="#7836F6"/>
</linearGradient>
<linearGradient id="paint8_linear_32_458" x1="74.4836" y1="36.9662" x2="124.181" y2="36.9662" gradientUnits="userSpaceOnUse">
<stop stop-color="#9243EE"/>
<stop offset="1" stop-color="#7836F6"/>
</linearGradient>
<linearGradient id="paint9_linear_32_458" x1="62.4403" y1="62.4394" x2="84.5031" y2="62.4394" gradientUnits="userSpaceOnUse">
<stop stop-color="#9243EE"/>
<stop offset="1" stop-color="#7836F6"/>
</linearGradient>
<linearGradient id="paint10_linear_32_458" x1="57.368" y1="46.2747" x2="77.6318" y2="46.2747" gradientUnits="userSpaceOnUse">
<stop stop-color="#9243EE"/>
<stop offset="1" stop-color="#7836F6"/>
</linearGradient>
<linearGradient id="paint11_linear_32_458" x1="98.5039" y1="83.428" x2="133.522" y2="83.428" gradientUnits="userSpaceOnUse">
<stop stop-color="#9243EE"/>
<stop offset="1" stop-color="#7836F6"/>
</linearGradient>
<linearGradient id="paint12_linear_32_458" x1="100.219" y1="31.8813" x2="109.064" y2="31.8813" gradientUnits="userSpaceOnUse">
<stop stop-color="#9243EE"/>
<stop offset="1" stop-color="#7836F6"/>
</linearGradient>
<linearGradient id="paint13_linear_32_458" x1="90.4998" y1="40.7266" x2="99.3448" y2="40.7266" gradientUnits="userSpaceOnUse">
<stop stop-color="#9243EE"/>
<stop offset="1" stop-color="#7836F6"/>
</linearGradient>
<linearGradient id="paint14_linear_32_458" x1="81.2798" y1="50.7209" x2="90.1249" y2="50.7209" gradientUnits="userSpaceOnUse">
<stop stop-color="#9243EE"/>
<stop offset="1" stop-color="#7836F6"/>
</linearGradient>
<linearGradient id="paint15_linear_32_458" x1="104.317" y1="24.2731" x2="119.159" y2="24.2731" gradientUnits="userSpaceOnUse">
<stop stop-color="#9243EE"/>
<stop offset="1" stop-color="#7836F6"/>
</linearGradient>
<clipPath id="clip0_32_458">
<rect width="135" height="108.415" fill="white" transform="translate(0 0.0739746)"/>
</clipPath>
</defs>
</svg>
