<svg width="36" height="36" viewBox="0 0 36 36" fill="none" xmlns="http://www.w3.org/2000/svg">
<rect x="6" y="13.5" width="24" height="18" rx="6" stroke="black" stroke-width="2.25"/>
<path d="M18 24L18 21" stroke="black" stroke-width="2.25" stroke-linecap="round" stroke-linejoin="round"/>
<path d="M22.0001 7.71344C22.3552 8.22325 23.0564 8.34863 23.5662 7.99348C24.076 7.63833 24.2014 6.93714 23.8463 6.42733L22.0001 7.71344ZM12.4173 6.07293C12.0312 6.55976 12.1129 7.26737 12.5998 7.65343C13.0866 8.03948 13.7942 7.95778 14.1802 7.47096L12.4173 6.07293ZM13.125 13.5V10.5H10.875V13.5H13.125ZM13.125 10.5C13.125 7.80761 15.3076 5.625 18 5.625V3.375C14.065 3.375 10.875 6.56497 10.875 10.5H13.125ZM23.8463 6.42733C22.9965 5.20755 21.7866 4.28409 20.3858 3.78631L19.6324 5.90643C20.5908 6.24701 21.4187 6.87885 22.0001 7.71344L23.8463 6.42733ZM20.3858 3.78631C18.985 3.28853 17.4637 3.24136 16.0347 3.65139L16.6554 5.81411C17.633 5.53356 18.674 5.56584 19.6324 5.90643L20.3858 3.78631ZM16.0347 3.65139C14.6058 4.06143 13.341 4.90814 12.4173 6.07293L14.1802 7.47096C14.8122 6.67399 15.6777 6.09466 16.6554 5.81411L16.0347 3.65139Z" fill="black"/>
</svg>
