<svg width="34" height="34" viewBox="0 0 34 34" fill="none" xmlns="http://www.w3.org/2000/svg">
<path d="M12.3082 26.5026H11.6237C6.14758 26.5026 3.40955 25.1335 3.40955 18.2885V11.4434C3.40955 5.96729 6.14758 3.22925 11.6237 3.22925H22.5758C28.0519 3.22925 30.7899 5.96729 30.7899 11.4434V18.2885C30.7899 23.7645 28.0519 26.5026 22.5758 26.5026H21.8913C21.4669 26.5026 21.0562 26.7079 20.7961 27.0502L18.7426 29.7882C17.839 30.9929 16.3605 30.9929 15.4569 29.7882L13.4034 27.0502C13.1843 26.749 12.6778 26.5026 12.3082 26.5026Z" stroke="#C3C5CD" stroke-width="2.05353" stroke-miterlimit="10" stroke-linecap="round" stroke-linejoin="round"/>
<path d="M10.2546 11.4434H23.9448" stroke="#C3C5CD" stroke-width="2.05353" stroke-linecap="round" stroke-linejoin="round"/>
<path d="M10.2546 18.2888H18.4688" stroke="#C3C5CD" stroke-width="2.05353" stroke-linecap="round" stroke-linejoin="round"/>
</svg>
