<svg width="34" height="34" viewBox="0 0 34 34" fill="none" xmlns="http://www.w3.org/2000/svg">
<path d="M25.0384 30.0894C23.8336 30.4453 22.4098 30.6096 20.7396 30.6096H12.5255C10.8553 30.6096 9.43154 30.4453 8.22681 30.0894C8.52799 26.5299 12.1833 23.7234 16.6326 23.7234C21.0819 23.7234 24.7372 26.5299 25.0384 30.0894Z" stroke="#C3C5CD" stroke-width="2.05353" stroke-linecap="round" stroke-linejoin="round"/>
<path d="M20.7396 3.22925H12.5255C5.68042 3.22925 2.94238 5.96729 2.94238 12.8124V21.0265C2.94238 26.2014 4.50306 29.0352 8.2268 30.0894C8.52798 26.5299 12.1833 23.7234 16.6326 23.7234C21.0819 23.7234 24.7372 26.5299 25.0383 30.0894C28.7621 29.0352 30.3228 26.2014 30.3228 21.0265V12.8124C30.3228 5.96729 27.5847 3.22925 20.7396 3.22925ZM16.6326 19.8902C13.9219 19.8902 11.7315 17.6861 11.7315 14.9755C11.7315 12.2648 13.9219 10.0743 16.6326 10.0743C19.3432 10.0743 21.5337 12.2648 21.5337 14.9755C21.5337 17.6861 19.3432 19.8902 16.6326 19.8902Z" stroke="#C3C5CD" stroke-width="2.05353" stroke-linecap="round" stroke-linejoin="round"/>
<path d="M21.5336 14.9758C21.5336 17.6865 19.3432 19.8905 16.6325 19.8905C13.9219 19.8905 11.7314 17.6865 11.7314 14.9758C11.7314 12.2652 13.9219 10.0747 16.6325 10.0747C19.3432 10.0747 21.5336 12.2652 21.5336 14.9758Z" stroke="#C3C5CD" stroke-width="2.05353" stroke-linecap="round" stroke-linejoin="round"/>
</svg>
