<svg width="34" height="34" viewBox="0 0 34 34" fill="none" xmlns="http://www.w3.org/2000/svg">
<path d="M12.5912 30.4663H20.8053C27.6504 30.4663 30.3884 27.7283 30.3884 20.8832V12.6691C30.3884 5.82398 27.6504 3.08594 20.8053 3.08594H12.5912C5.74609 3.08594 3.00806 5.82398 3.00806 12.6691V20.8832C3.00806 27.7283 5.74609 30.4663 12.5912 30.4663Z" stroke="#C3C5CD" stroke-width="2.05353" stroke-linecap="round" stroke-linejoin="round"/>
<path d="M12.7281 16.776V14.7499C12.7281 12.1351 14.5763 11.0809 16.8352 12.3815L18.5875 13.3945L20.3399 14.4076C22.5988 15.7082 22.5988 17.8439 20.3399 19.1444L18.5875 20.1575L16.8352 21.1706C14.5763 22.4711 12.7281 21.4033 12.7281 18.8022V16.776Z" stroke="#C3C5CD" stroke-width="2.05353" stroke-miterlimit="10" stroke-linecap="round" stroke-linejoin="round"/>
</svg>
